<mxfile host="Electron" modified="2025-06-05T21:58:30.505Z" agent="Mozilla/5.0 (Windows NT 10.0; Win64; x64) AppleWebKit/537.36 (KHTML, like Gecko) draw.io/24.1.0 Chrome/120.0.6099.109 Electron/28.1.0 Safari/537.36" etag="7F-9P3n28DvNfGq-hc7_" version="24.1.0" type="device">
  <diagram name="Página-1" id="HnM5bIwWVijFqjH4xQIT">
    <mxGraphModel dx="3172" dy="1144" grid="1" gridSize="10" guides="1" tooltips="1" connect="1" arrows="1" fold="1" page="1" pageScale="1" pageWidth="827" pageHeight="1169" math="0" shadow="0">
      <root>
        <mxCell id="0" />
        <mxCell id="1" parent="0" />
        <mxCell id="joN3pdNG3yfQY1ER5gcC-1" value="&lt;font style=&quot;font-size: 18px;&quot;&gt;&amp;lt;&amp;lt;component&amp;gt;&amp;gt;&lt;/font&gt;&lt;div&gt;&lt;font size=&quot;3&quot;&gt;&amp;lt;&amp;lt;C4 System&amp;gt;&amp;gt;&lt;br&gt;&lt;b&gt;GILT Alumni&lt;/b&gt;&lt;/font&gt;&lt;/div&gt;&lt;div&gt;&lt;b&gt;&lt;br&gt;&lt;/b&gt;&lt;/div&gt;&lt;div&gt;&lt;b&gt;&lt;br&gt;&lt;/b&gt;&lt;/div&gt;&lt;div&gt;&lt;b&gt;&lt;br&gt;&lt;/b&gt;&lt;/div&gt;&lt;div&gt;&lt;b&gt;&lt;br&gt;&lt;/b&gt;&lt;/div&gt;&lt;div&gt;&lt;b&gt;&lt;br&gt;&lt;/b&gt;&lt;/div&gt;&lt;div&gt;&lt;b&gt;&lt;br&gt;&lt;/b&gt;&lt;/div&gt;&lt;div&gt;&lt;b&gt;&lt;br&gt;&lt;/b&gt;&lt;/div&gt;&lt;div&gt;&lt;b&gt;&lt;br&gt;&lt;/b&gt;&lt;/div&gt;&lt;div&gt;&lt;b&gt;&lt;br&gt;&lt;/b&gt;&lt;/div&gt;&lt;div&gt;&lt;b&gt;&lt;br&gt;&lt;/b&gt;&lt;/div&gt;&lt;div&gt;&lt;b&gt;&lt;br&gt;&lt;/b&gt;&lt;/div&gt;&lt;div&gt;&lt;b&gt;&lt;br&gt;&lt;/b&gt;&lt;/div&gt;&lt;div&gt;&lt;b&gt;&lt;br&gt;&lt;/b&gt;&lt;/div&gt;&lt;div&gt;&lt;b&gt;&lt;br&gt;&lt;/b&gt;&lt;/div&gt;&lt;div&gt;&lt;b&gt;&lt;br&gt;&lt;/b&gt;&lt;/div&gt;&lt;div&gt;&lt;b&gt;&lt;br&gt;&lt;/b&gt;&lt;/div&gt;&lt;div&gt;&lt;b&gt;&lt;br&gt;&lt;/b&gt;&lt;/div&gt;&lt;div&gt;&lt;b&gt;&lt;br&gt;&lt;/b&gt;&lt;/div&gt;&lt;div&gt;&lt;b&gt;&lt;br&gt;&lt;/b&gt;&lt;/div&gt;&lt;div&gt;&lt;b&gt;&lt;br&gt;&lt;/b&gt;&lt;/div&gt;&lt;div&gt;&lt;b&gt;&lt;br&gt;&lt;/b&gt;&lt;/div&gt;&lt;div&gt;&lt;b&gt;&lt;br&gt;&lt;/b&gt;&lt;/div&gt;&lt;div&gt;&lt;b&gt;&lt;br&gt;&lt;/b&gt;&lt;/div&gt;&lt;div&gt;&lt;b&gt;&lt;br&gt;&lt;/b&gt;&lt;/div&gt;&lt;div&gt;&lt;b&gt;&lt;br&gt;&lt;/b&gt;&lt;/div&gt;&lt;div&gt;&lt;b&gt;&lt;br&gt;&lt;/b&gt;&lt;/div&gt;&lt;div&gt;&lt;b&gt;&lt;br&gt;&lt;/b&gt;&lt;/div&gt;&lt;div&gt;&lt;b&gt;&lt;br&gt;&lt;/b&gt;&lt;/div&gt;&lt;div&gt;&lt;b&gt;&lt;br&gt;&lt;/b&gt;&lt;/div&gt;&lt;div&gt;&lt;br&gt;&lt;/div&gt;" style="html=1;dropTarget=0;whiteSpace=wrap;" parent="1" vertex="1">
          <mxGeometry x="-600" y="210" width="990" height="500" as="geometry" />
        </mxCell>
        <mxCell id="joN3pdNG3yfQY1ER5gcC-2" value="" style="shape=module;jettyWidth=8;jettyHeight=4;" parent="joN3pdNG3yfQY1ER5gcC-1" vertex="1">
          <mxGeometry x="1" width="20" height="20" relative="1" as="geometry">
            <mxPoint x="-27" y="7" as="offset" />
          </mxGeometry>
        </mxCell>
        <mxCell id="joN3pdNG3yfQY1ER5gcC-5" value="" style="ellipse;whiteSpace=wrap;html=1;align=center;aspect=fixed;fillColor=none;strokeColor=none;resizable=0;perimeter=centerPerimeter;rotatable=0;allowArrows=0;points=[];outlineConnect=1;" parent="1" vertex="1">
          <mxGeometry x="-66" y="370" width="10" height="10" as="geometry" />
        </mxCell>
        <mxCell id="joN3pdNG3yfQY1ER5gcC-11" value="&lt;font style=&quot;font-size: 18px;&quot;&gt;«component»&lt;/font&gt;&lt;div&gt;&lt;font size=&quot;3&quot;&gt;«container (C4)»&lt;br&gt;&lt;b&gt;AutomationSystem&lt;/b&gt;&lt;/font&gt;&lt;/div&gt;" style="html=1;dropTarget=0;whiteSpace=wrap;" parent="1" vertex="1">
          <mxGeometry x="-156" y="300" width="180" height="90" as="geometry" />
        </mxCell>
        <mxCell id="joN3pdNG3yfQY1ER5gcC-12" value="" style="shape=module;jettyWidth=8;jettyHeight=4;" parent="joN3pdNG3yfQY1ER5gcC-11" vertex="1">
          <mxGeometry x="1" width="20" height="20" relative="1" as="geometry">
            <mxPoint x="-27" y="7" as="offset" />
          </mxGeometry>
        </mxCell>
        <mxCell id="joN3pdNG3yfQY1ER5gcC-16" value="" style="ellipse;whiteSpace=wrap;html=1;align=center;aspect=fixed;fillColor=none;strokeColor=none;resizable=0;perimeter=centerPerimeter;rotatable=0;allowArrows=0;points=[];outlineConnect=1;" parent="1" vertex="1">
          <mxGeometry x="109" y="400" width="10" height="10" as="geometry" />
        </mxCell>
        <mxCell id="joN3pdNG3yfQY1ER5gcC-20" value="" style="rounded=0;orthogonalLoop=1;jettySize=auto;html=1;endArrow=oval;endFill=0;sketch=0;sourcePerimeterSpacing=0;targetPerimeterSpacing=0;endSize=10;exitX=1;exitY=0.5;exitDx=0;exitDy=0;" parent="1" source="7e2kdxyPMD2-_6HDpAWm-35" edge="1">
          <mxGeometry relative="1" as="geometry">
            <mxPoint x="44" y="505" as="sourcePoint" />
            <mxPoint x="84" y="503" as="targetPoint" />
            <Array as="points" />
          </mxGeometry>
        </mxCell>
        <mxCell id="joN3pdNG3yfQY1ER5gcC-21" value="&lt;b&gt;&lt;font style=&quot;font-size: 18px;&quot;&gt;Inquéritos&lt;/font&gt;&lt;/b&gt;&lt;div&gt;&lt;b&gt;&lt;font size=&quot;3&quot;&gt;API&lt;/font&gt;&lt;/b&gt;&lt;/div&gt;" style="edgeLabel;html=1;align=center;verticalAlign=middle;resizable=0;points=[];" parent="joN3pdNG3yfQY1ER5gcC-20" vertex="1" connectable="0">
          <mxGeometry x="0.7483" relative="1" as="geometry">
            <mxPoint x="38" y="27" as="offset" />
          </mxGeometry>
        </mxCell>
        <mxCell id="joN3pdNG3yfQY1ER5gcC-22" value="" style="ellipse;whiteSpace=wrap;html=1;align=center;aspect=fixed;fillColor=none;strokeColor=none;resizable=0;perimeter=centerPerimeter;rotatable=0;allowArrows=0;points=[];outlineConnect=1;" parent="1" vertex="1">
          <mxGeometry x="134" y="510" width="10" height="10" as="geometry" />
        </mxCell>
        <mxCell id="joN3pdNG3yfQY1ER5gcC-25" value="&lt;font style=&quot;font-size: 18px;&quot;&gt;«component»&lt;br&gt;«container (C4)»&lt;/font&gt;&lt;div&gt;&lt;b&gt;&lt;font size=&quot;3&quot;&gt;RGPD&lt;/font&gt;&lt;/b&gt;&lt;/div&gt;" style="rounded=0;whiteSpace=wrap;html=1;" parent="1" vertex="1">
          <mxGeometry x="190" y="445" width="180" height="105" as="geometry" />
        </mxCell>
        <mxCell id="joN3pdNG3yfQY1ER5gcC-27" value="" style="rounded=0;orthogonalLoop=1;jettySize=auto;html=1;endArrow=halfCircle;endFill=0;endSize=6;strokeWidth=1;sketch=0;fontSize=12;curved=1;exitX=-0.002;exitY=0.589;exitDx=0;exitDy=0;exitPerimeter=0;" parent="1" source="joN3pdNG3yfQY1ER5gcC-25" edge="1">
          <mxGeometry relative="1" as="geometry">
            <mxPoint x="150" y="510" as="sourcePoint" />
            <mxPoint x="90" y="505" as="targetPoint" />
          </mxGeometry>
        </mxCell>
        <mxCell id="joN3pdNG3yfQY1ER5gcC-33" value="&lt;font style=&quot;font-size: 18px;&quot;&gt;«component»&lt;br&gt;«container (C4)»&lt;/font&gt;&lt;div&gt;&lt;b&gt;&lt;font size=&quot;3&quot;&gt;BCP&lt;/font&gt;&lt;/b&gt;&lt;/div&gt;" style="rounded=0;whiteSpace=wrap;html=1;" parent="1" vertex="1">
          <mxGeometry x="144" y="570" width="180" height="105" as="geometry" />
        </mxCell>
        <mxCell id="joN3pdNG3yfQY1ER5gcC-39" value="" style="rounded=0;orthogonalLoop=1;jettySize=auto;html=1;endArrow=halfCircle;endFill=0;endSize=6;strokeWidth=1;sketch=0;exitX=1;exitY=0.75;exitDx=0;exitDy=0;" parent="1" source="joN3pdNG3yfQY1ER5gcC-11" edge="1">
          <mxGeometry relative="1" as="geometry">
            <mxPoint x="34" y="370" as="sourcePoint" />
            <mxPoint x="84" y="500" as="targetPoint" />
            <Array as="points">
              <mxPoint x="84" y="368" />
              <mxPoint x="84" y="410" />
            </Array>
          </mxGeometry>
        </mxCell>
        <mxCell id="joN3pdNG3yfQY1ER5gcC-40" value="&lt;font style=&quot;font-size: 18px;&quot;&gt;«component»&lt;/font&gt;&lt;div&gt;&lt;font size=&quot;3&quot;&gt;«container (C4)»&lt;br&gt;&lt;b&gt;Database&lt;/b&gt;&lt;/font&gt;&lt;/div&gt;" style="html=1;dropTarget=0;whiteSpace=wrap;" parent="1" vertex="1">
          <mxGeometry x="-170" y="590" width="150" height="65" as="geometry" />
        </mxCell>
        <mxCell id="joN3pdNG3yfQY1ER5gcC-41" value="" style="shape=module;jettyWidth=8;jettyHeight=4;" parent="joN3pdNG3yfQY1ER5gcC-40" vertex="1">
          <mxGeometry x="1" width="20" height="20" relative="1" as="geometry">
            <mxPoint x="-27" y="7" as="offset" />
          </mxGeometry>
        </mxCell>
        <mxCell id="joN3pdNG3yfQY1ER5gcC-44" value="" style="rounded=0;orthogonalLoop=1;jettySize=auto;html=1;endArrow=halfCircle;endFill=0;endSize=6;strokeWidth=1;sketch=0;" parent="1" edge="1">
          <mxGeometry relative="1" as="geometry">
            <mxPoint x="-96" y="390" as="sourcePoint" />
            <mxPoint x="-96" y="550" as="targetPoint" />
          </mxGeometry>
        </mxCell>
        <mxCell id="joN3pdNG3yfQY1ER5gcC-45" value="" style="rounded=0;orthogonalLoop=1;jettySize=auto;html=1;endArrow=oval;endFill=0;sketch=0;sourcePerimeterSpacing=0;targetPerimeterSpacing=0;endSize=10;exitX=0.5;exitY=0;exitDx=0;exitDy=0;" parent="1" source="joN3pdNG3yfQY1ER5gcC-40" edge="1">
          <mxGeometry relative="1" as="geometry">
            <mxPoint x="-96" y="580" as="sourcePoint" />
            <mxPoint x="-96" y="550" as="targetPoint" />
          </mxGeometry>
        </mxCell>
        <mxCell id="joN3pdNG3yfQY1ER5gcC-46" value="&lt;b&gt;&lt;font style=&quot;font-size: 18px;&quot;&gt;Database&lt;/font&gt;&lt;/b&gt;&lt;div&gt;&lt;b&gt;&lt;font style=&quot;font-size: 18px;&quot;&gt;API&lt;/font&gt;&lt;/b&gt;&lt;/div&gt;" style="edgeLabel;html=1;align=center;verticalAlign=middle;resizable=0;points=[];" parent="joN3pdNG3yfQY1ER5gcC-45" vertex="1" connectable="0">
          <mxGeometry x="0.7483" relative="1" as="geometry">
            <mxPoint x="-54" y="-4" as="offset" />
          </mxGeometry>
        </mxCell>
        <mxCell id="joN3pdNG3yfQY1ER5gcC-47" value="&lt;font style=&quot;font-size: 18px;&quot;&gt;«component»&lt;/font&gt;&lt;div&gt;&lt;font size=&quot;3&quot;&gt;«container (C4)»&lt;br&gt;&lt;b&gt;GILTAdminApp&lt;/b&gt;&lt;/font&gt;&lt;/div&gt;" style="html=1;dropTarget=0;whiteSpace=wrap;" parent="1" vertex="1">
          <mxGeometry x="-476" y="430" width="170" height="80" as="geometry" />
        </mxCell>
        <mxCell id="joN3pdNG3yfQY1ER5gcC-48" value="" style="shape=module;jettyWidth=8;jettyHeight=4;" parent="joN3pdNG3yfQY1ER5gcC-47" vertex="1">
          <mxGeometry x="1" width="20" height="20" relative="1" as="geometry">
            <mxPoint x="-27" y="7" as="offset" />
          </mxGeometry>
        </mxCell>
        <mxCell id="joN3pdNG3yfQY1ER5gcC-49" value="&lt;font style=&quot;font-size: 18px;&quot;&gt;«component»&lt;/font&gt;&lt;div&gt;&lt;font size=&quot;3&quot;&gt;«container (C4)»&lt;br&gt;&lt;b&gt;SQLiteDB&lt;/b&gt;&lt;/font&gt;&lt;/div&gt;" style="html=1;dropTarget=0;whiteSpace=wrap;" parent="1" vertex="1">
          <mxGeometry x="-500" y="590" width="130" height="65" as="geometry" />
        </mxCell>
        <mxCell id="joN3pdNG3yfQY1ER5gcC-50" value="" style="shape=module;jettyWidth=8;jettyHeight=4;" parent="joN3pdNG3yfQY1ER5gcC-49" vertex="1">
          <mxGeometry x="1" width="20" height="20" relative="1" as="geometry">
            <mxPoint x="-27" y="7" as="offset" />
          </mxGeometry>
        </mxCell>
        <mxCell id="joN3pdNG3yfQY1ER5gcC-53" value="" style="rounded=0;orthogonalLoop=1;jettySize=auto;html=1;endArrow=halfCircle;endFill=0;endSize=6;strokeWidth=1;sketch=0;exitX=0.25;exitY=1;exitDx=0;exitDy=0;" parent="1" edge="1">
          <mxGeometry relative="1" as="geometry">
            <mxPoint x="-435.26" y="510" as="sourcePoint" />
            <mxPoint x="-435.01" y="547.5" as="targetPoint" />
          </mxGeometry>
        </mxCell>
        <mxCell id="joN3pdNG3yfQY1ER5gcC-54" value="" style="rounded=0;orthogonalLoop=1;jettySize=auto;html=1;endArrow=oval;endFill=0;sketch=0;sourcePerimeterSpacing=0;targetPerimeterSpacing=0;endSize=10;exitX=0.5;exitY=0;exitDx=0;exitDy=0;" parent="1" edge="1">
          <mxGeometry relative="1" as="geometry">
            <mxPoint x="-435" y="590" as="sourcePoint" />
            <mxPoint x="-435" y="550" as="targetPoint" />
          </mxGeometry>
        </mxCell>
        <mxCell id="joN3pdNG3yfQY1ER5gcC-55" value="&lt;b&gt;&lt;font style=&quot;font-size: 18px;&quot;&gt;Database&lt;/font&gt;&lt;/b&gt;&lt;div&gt;&lt;b&gt;&lt;font style=&quot;font-size: 18px;&quot;&gt;API&lt;/font&gt;&lt;/b&gt;&lt;/div&gt;" style="edgeLabel;html=1;align=center;verticalAlign=middle;resizable=0;points=[];" parent="joN3pdNG3yfQY1ER5gcC-54" vertex="1" connectable="0">
          <mxGeometry x="0.7483" relative="1" as="geometry">
            <mxPoint x="-75" y="-1" as="offset" />
          </mxGeometry>
        </mxCell>
        <mxCell id="joN3pdNG3yfQY1ER5gcC-63" value="&lt;font style=&quot;font-size: 18px;&quot;&gt;&lt;b&gt;locale: DEI VS&lt;/b&gt;&lt;br&gt;&lt;/font&gt;&lt;div&gt;&lt;b&gt;&lt;br&gt;&lt;/b&gt;&lt;/div&gt;&lt;div&gt;&lt;b&gt;&lt;br&gt;&lt;/b&gt;&lt;/div&gt;&lt;div&gt;&lt;b&gt;&lt;br&gt;&lt;/b&gt;&lt;/div&gt;&lt;div&gt;&lt;b&gt;&lt;br&gt;&lt;/b&gt;&lt;/div&gt;&lt;div&gt;&lt;b&gt;&lt;br&gt;&lt;/b&gt;&lt;/div&gt;&lt;div&gt;&lt;b&gt;&lt;br&gt;&lt;/b&gt;&lt;/div&gt;&lt;div&gt;&lt;b&gt;&lt;br&gt;&lt;/b&gt;&lt;/div&gt;&lt;div&gt;&lt;br&gt;&lt;/div&gt;&lt;div&gt;&lt;br&gt;&lt;/div&gt;&lt;div&gt;&lt;br&gt;&lt;/div&gt;&lt;div&gt;&lt;br&gt;&lt;/div&gt;&lt;div&gt;&lt;br&gt;&lt;/div&gt;&lt;div&gt;&lt;br&gt;&lt;/div&gt;&lt;div&gt;&lt;br&gt;&lt;/div&gt;&lt;div&gt;&lt;br&gt;&lt;/div&gt;&lt;div&gt;&lt;br&gt;&lt;/div&gt;&lt;div&gt;&lt;br&gt;&lt;/div&gt;&lt;div&gt;&lt;br&gt;&lt;/div&gt;&lt;div&gt;&lt;br&gt;&lt;/div&gt;&lt;div&gt;&lt;br&gt;&lt;/div&gt;&lt;div&gt;&lt;br&gt;&lt;/div&gt;&lt;div&gt;&lt;br&gt;&lt;/div&gt;&lt;div&gt;&lt;br&gt;&lt;/div&gt;&lt;div&gt;&lt;br&gt;&lt;/div&gt;&lt;div&gt;&lt;br&gt;&lt;/div&gt;&lt;div&gt;&lt;br&gt;&lt;/div&gt;&lt;div&gt;&lt;br&gt;&lt;/div&gt;&lt;div&gt;&lt;br&gt;&lt;/div&gt;&lt;div&gt;&lt;br&gt;&lt;/div&gt;" style="shape=cube;whiteSpace=wrap;html=1;boundedLbl=1;backgroundOutline=1;darkOpacity=0.05;darkOpacity2=0.1;" parent="1" vertex="1">
          <mxGeometry x="-669" y="987.5" width="696" height="480" as="geometry" />
        </mxCell>
        <mxCell id="joN3pdNG3yfQY1ER5gcC-64" value="&lt;b&gt;&lt;font style=&quot;font-size: 18px;&quot;&gt;localhost:??&lt;/font&gt;&lt;/b&gt;&lt;div&gt;&lt;b&gt;&lt;br&gt;&lt;/b&gt;&lt;/div&gt;&lt;div&gt;&lt;br&gt;&lt;/div&gt;&lt;div&gt;&lt;b&gt;&lt;br&gt;&lt;/b&gt;&lt;/div&gt;&lt;div&gt;&lt;b&gt;&lt;br&gt;&lt;/b&gt;&lt;/div&gt;&lt;div&gt;&lt;b&gt;&lt;br&gt;&lt;/b&gt;&lt;/div&gt;&lt;div&gt;&lt;b&gt;&lt;br&gt;&lt;/b&gt;&lt;/div&gt;&lt;div&gt;&lt;b&gt;&lt;br&gt;&lt;/b&gt;&lt;/div&gt;&lt;div&gt;&lt;b&gt;&lt;br&gt;&lt;/b&gt;&lt;/div&gt;&lt;div&gt;&lt;br&gt;&lt;/div&gt;" style="shape=cube;whiteSpace=wrap;html=1;boundedLbl=1;backgroundOutline=1;darkOpacity=0.05;darkOpacity2=0.1;" parent="1" vertex="1">
          <mxGeometry x="-386" y="790" width="275" height="190" as="geometry" />
        </mxCell>
        <mxCell id="joN3pdNG3yfQY1ER5gcC-65" value="&lt;font style=&quot;font-size: 18px;&quot;&gt;«component»&lt;br&gt;&lt;b&gt;Browser&lt;/b&gt;&lt;/font&gt;&lt;div&gt;&lt;b&gt;&lt;br&gt;&lt;/b&gt;&lt;/div&gt;&lt;div&gt;&lt;b&gt;&lt;br&gt;&lt;/b&gt;&lt;/div&gt;&lt;div&gt;&lt;b&gt;&lt;br&gt;&lt;/b&gt;&lt;/div&gt;&lt;div&gt;&lt;b&gt;&lt;br&gt;&lt;/b&gt;&lt;/div&gt;&lt;div&gt;&lt;b&gt;&lt;br&gt;&lt;/b&gt;&lt;/div&gt;" style="html=1;dropTarget=0;whiteSpace=wrap;" parent="1" vertex="1">
          <mxGeometry x="-351" y="850" width="210" height="120" as="geometry" />
        </mxCell>
        <mxCell id="joN3pdNG3yfQY1ER5gcC-66" value="" style="shape=module;jettyWidth=8;jettyHeight=4;" parent="joN3pdNG3yfQY1ER5gcC-65" vertex="1">
          <mxGeometry x="1" width="20" height="20" relative="1" as="geometry">
            <mxPoint x="-27" y="7" as="offset" />
          </mxGeometry>
        </mxCell>
        <mxCell id="joN3pdNG3yfQY1ER5gcC-67" value="&lt;font style=&quot;font-size: 18px;&quot;&gt;«component»&lt;br&gt;&lt;b&gt;GILTAdminApp&lt;/b&gt;&lt;/font&gt;" style="html=1;dropTarget=0;whiteSpace=wrap;" parent="1" vertex="1">
          <mxGeometry x="-331" y="900" width="172" height="60" as="geometry" />
        </mxCell>
        <mxCell id="joN3pdNG3yfQY1ER5gcC-68" value="" style="shape=module;jettyWidth=8;jettyHeight=4;" parent="joN3pdNG3yfQY1ER5gcC-67" vertex="1">
          <mxGeometry x="1" width="20" height="20" relative="1" as="geometry">
            <mxPoint x="-27" y="7" as="offset" />
          </mxGeometry>
        </mxCell>
        <mxCell id="joN3pdNG3yfQY1ER5gcC-69" value="&lt;b&gt;&lt;font style=&quot;font-size: 18px;&quot;&gt;server1: VS 556&lt;/font&gt;&lt;/b&gt;&lt;div&gt;&lt;b&gt;&lt;br&gt;&lt;/b&gt;&lt;/div&gt;&lt;div&gt;&lt;b&gt;&lt;br&gt;&lt;/b&gt;&lt;/div&gt;&lt;div&gt;&lt;b&gt;&lt;br&gt;&lt;/b&gt;&lt;/div&gt;&lt;div&gt;&lt;b&gt;&lt;br&gt;&lt;/b&gt;&lt;/div&gt;&lt;div&gt;&lt;b&gt;&lt;br&gt;&lt;/b&gt;&lt;/div&gt;&lt;div&gt;&lt;b&gt;&lt;br&gt;&lt;/b&gt;&lt;/div&gt;&lt;div&gt;&lt;b&gt;&lt;br&gt;&lt;/b&gt;&lt;/div&gt;&lt;div&gt;&lt;br&gt;&lt;/div&gt;&lt;div&gt;&lt;br&gt;&lt;/div&gt;&lt;div&gt;&lt;br&gt;&lt;/div&gt;&lt;div&gt;&lt;br&gt;&lt;/div&gt;&lt;div&gt;&lt;br&gt;&lt;/div&gt;&lt;div&gt;&lt;br&gt;&lt;/div&gt;&lt;div&gt;&lt;br&gt;&lt;/div&gt;&lt;div&gt;&lt;br&gt;&lt;/div&gt;&lt;div&gt;&lt;br&gt;&lt;/div&gt;&lt;div&gt;&lt;br&gt;&lt;/div&gt;&lt;div&gt;&lt;br&gt;&lt;/div&gt;&lt;div&gt;&lt;br&gt;&lt;/div&gt;&lt;div&gt;&lt;br&gt;&lt;/div&gt;&lt;div&gt;&lt;br&gt;&lt;/div&gt;&lt;div&gt;&lt;br&gt;&lt;/div&gt;" style="shape=cube;whiteSpace=wrap;html=1;boundedLbl=1;backgroundOutline=1;darkOpacity=0.05;darkOpacity2=0.1;" parent="1" vertex="1">
          <mxGeometry x="-589" y="1045" width="546" height="377.5" as="geometry" />
        </mxCell>
        <mxCell id="joN3pdNG3yfQY1ER5gcC-70" value="" style="endArrow=none;html=1;rounded=0;entryX=0.25;entryY=1;entryDx=0;entryDy=0;exitX=0;exitY=0;exitDx=40;exitDy=0;exitPerimeter=0;" parent="1" source="joN3pdNG3yfQY1ER5gcC-77" target="joN3pdNG3yfQY1ER5gcC-65" edge="1">
          <mxGeometry width="50" height="50" relative="1" as="geometry">
            <mxPoint x="-98.26999999999975" y="1212.68" as="sourcePoint" />
            <mxPoint x="-98.99999999999977" y="957.5" as="targetPoint" />
          </mxGeometry>
        </mxCell>
        <mxCell id="joN3pdNG3yfQY1ER5gcC-71" value="&lt;font style=&quot;font-size: 18px;&quot;&gt;http/s&lt;/font&gt;" style="edgeLabel;html=1;align=center;verticalAlign=middle;resizable=0;points=[];" parent="joN3pdNG3yfQY1ER5gcC-70" vertex="1" connectable="0">
          <mxGeometry x="-0.3891" y="-2" relative="1" as="geometry">
            <mxPoint y="11" as="offset" />
          </mxGeometry>
        </mxCell>
        <mxCell id="joN3pdNG3yfQY1ER5gcC-77" value="" style="shape=folder;fontStyle=1;spacingTop=10;tabWidth=40;tabHeight=14;tabPosition=left;html=1;whiteSpace=wrap;" parent="1" vertex="1">
          <mxGeometry x="-341" y="1199.54" width="230" height="150" as="geometry" />
        </mxCell>
        <mxCell id="joN3pdNG3yfQY1ER5gcC-83" value="&lt;font style=&quot;font-size: 18px;&quot;&gt;«component»&lt;br&gt;&lt;b&gt;HTTP Server&lt;/b&gt;&lt;/font&gt;" style="html=1;dropTarget=0;whiteSpace=wrap;" parent="1" vertex="1">
          <mxGeometry x="-331" y="1224.54" width="210" height="50" as="geometry" />
        </mxCell>
        <mxCell id="joN3pdNG3yfQY1ER5gcC-84" value="" style="shape=module;jettyWidth=8;jettyHeight=4;" parent="joN3pdNG3yfQY1ER5gcC-83" vertex="1">
          <mxGeometry x="1" width="20" height="20" relative="1" as="geometry">
            <mxPoint x="-27" y="7" as="offset" />
          </mxGeometry>
        </mxCell>
        <mxCell id="joN3pdNG3yfQY1ER5gcC-85" value="&lt;font style=&quot;font-size: 18px;&quot;&gt;GILTAdminApp&lt;/font&gt;" style="shape=folder;fontStyle=1;spacingTop=10;tabWidth=40;tabHeight=14;tabPosition=left;html=1;whiteSpace=wrap;" parent="1" vertex="1">
          <mxGeometry x="-291" y="1289.54" width="140" height="50" as="geometry" />
        </mxCell>
        <mxCell id="joN3pdNG3yfQY1ER5gcC-87" value="&lt;font style=&quot;font-size: 18px;&quot;&gt;«component»&lt;br&gt;&lt;b&gt;BCP&lt;/b&gt;&lt;/font&gt;" style="html=1;dropTarget=0;whiteSpace=wrap;" parent="1" vertex="1">
          <mxGeometry x="-521" y="1282.04" width="145" height="50" as="geometry" />
        </mxCell>
        <mxCell id="joN3pdNG3yfQY1ER5gcC-88" value="" style="shape=module;jettyWidth=8;jettyHeight=4;" parent="joN3pdNG3yfQY1ER5gcC-87" vertex="1">
          <mxGeometry x="1" width="20" height="20" relative="1" as="geometry">
            <mxPoint x="-27" y="7" as="offset" />
          </mxGeometry>
        </mxCell>
        <mxCell id="joN3pdNG3yfQY1ER5gcC-96" value="&lt;font style=&quot;font-size: 18px;&quot;&gt;&lt;b style=&quot;&quot;&gt;microsoft.servers:??&lt;/b&gt;&lt;br&gt;&lt;/font&gt;&lt;div&gt;&lt;b&gt;&lt;br&gt;&lt;/b&gt;&lt;/div&gt;&lt;div&gt;&lt;b&gt;&lt;br&gt;&lt;/b&gt;&lt;/div&gt;&lt;div&gt;&lt;b&gt;&lt;br&gt;&lt;/b&gt;&lt;/div&gt;&lt;div&gt;&lt;b&gt;&lt;br&gt;&lt;/b&gt;&lt;/div&gt;&lt;div&gt;&lt;b&gt;&lt;br&gt;&lt;/b&gt;&lt;/div&gt;&lt;div&gt;&lt;br&gt;&lt;/div&gt;&lt;div&gt;&lt;br&gt;&lt;/div&gt;&lt;div&gt;&lt;br&gt;&lt;/div&gt;&lt;div&gt;&lt;br&gt;&lt;/div&gt;&lt;div&gt;&lt;br&gt;&lt;/div&gt;&lt;div&gt;&lt;br&gt;&lt;/div&gt;&lt;div&gt;&lt;br&gt;&lt;/div&gt;&lt;div&gt;&lt;br&gt;&lt;/div&gt;&lt;div&gt;&lt;br&gt;&lt;/div&gt;&lt;div&gt;&lt;br&gt;&lt;/div&gt;&lt;div&gt;&lt;br&gt;&lt;/div&gt;&lt;div&gt;&lt;br&gt;&lt;/div&gt;&lt;div&gt;&lt;br&gt;&lt;/div&gt;&lt;div&gt;&lt;br&gt;&lt;/div&gt;&lt;div&gt;&lt;br&gt;&lt;/div&gt;" style="shape=cube;whiteSpace=wrap;html=1;boundedLbl=1;backgroundOutline=1;darkOpacity=0.05;darkOpacity2=0.1;" parent="1" vertex="1">
          <mxGeometry x="77" y="980" width="460" height="345" as="geometry" />
        </mxCell>
        <mxCell id="joN3pdNG3yfQY1ER5gcC-115" value="&lt;font style=&quot;font-size: 18px;&quot;&gt;«manifest»&lt;/font&gt;" style="endArrow=open;endSize=12;dashed=1;html=1;rounded=0;exitX=0;exitY=0.5;exitDx=0;exitDy=0;entryX=0.25;entryY=0;entryDx=0;entryDy=0;" parent="1" source="joN3pdNG3yfQY1ER5gcC-33" target="joN3pdNG3yfQY1ER5gcC-87" edge="1">
          <mxGeometry x="-0.7958" width="160" relative="1" as="geometry">
            <mxPoint x="300" y="530" as="sourcePoint" />
            <mxPoint x="460" y="530" as="targetPoint" />
            <mxPoint as="offset" />
            <Array as="points">
              <mxPoint x="50" y="623" />
              <mxPoint x="50" y="740" />
              <mxPoint x="-480" y="740" />
            </Array>
          </mxGeometry>
        </mxCell>
        <mxCell id="joN3pdNG3yfQY1ER5gcC-123" value="&lt;font style=&quot;font-size: 18px;&quot;&gt;«manifest»&lt;/font&gt;" style="endArrow=open;endSize=12;dashed=1;html=1;rounded=0;exitX=0.651;exitY=1.012;exitDx=0;exitDy=0;entryX=0.5;entryY=0;entryDx=0;entryDy=0;exitPerimeter=0;" parent="1" source="joN3pdNG3yfQY1ER5gcC-40" target="7e2kdxyPMD2-_6HDpAWm-9" edge="1">
          <mxGeometry x="-0.9763" width="160" relative="1" as="geometry">
            <mxPoint x="-141" y="500" as="sourcePoint" />
            <mxPoint x="1355" y="642.4999999999998" as="targetPoint" />
            <mxPoint as="offset" />
            <Array as="points">
              <mxPoint x="-72" y="920" />
              <mxPoint x="70" y="920" />
              <mxPoint x="330" y="920" />
            </Array>
          </mxGeometry>
        </mxCell>
        <mxCell id="joN3pdNG3yfQY1ER5gcC-124" value="&lt;font style=&quot;font-size: 18px;&quot;&gt;«manifest»&lt;/font&gt;" style="endArrow=open;endSize=12;dashed=1;html=1;rounded=0;exitX=0;exitY=0.25;exitDx=0;exitDy=0;entryX=0.098;entryY=0;entryDx=0;entryDy=0;entryPerimeter=0;" parent="1" target="joN3pdNG3yfQY1ER5gcC-65" edge="1" source="joN3pdNG3yfQY1ER5gcC-47">
          <mxGeometry x="-0.1816" y="-30" width="160" relative="1" as="geometry">
            <mxPoint x="-431.5" y="430" as="sourcePoint" />
            <mxPoint x="1555" y="435" as="targetPoint" />
            <mxPoint as="offset" />
            <Array as="points">
              <mxPoint x="-660" y="450" />
              <mxPoint x="-660" y="770" />
              <mxPoint x="-330" y="770" />
            </Array>
          </mxGeometry>
        </mxCell>
        <mxCell id="7e2kdxyPMD2-_6HDpAWm-4" value="" style="endArrow=open;endSize=12;dashed=1;html=1;rounded=0;exitX=0.405;exitY=1;exitDx=0;exitDy=0;entryX=-0.004;entryY=0.663;entryDx=0;entryDy=0;exitPerimeter=0;entryPerimeter=0;" edge="1" parent="1" source="joN3pdNG3yfQY1ER5gcC-49" target="joN3pdNG3yfQY1ER5gcC-77">
          <mxGeometry x="0.8812" y="20" width="160" relative="1" as="geometry">
            <mxPoint x="-398" y="655" as="sourcePoint" />
            <mxPoint x="1842.5" y="495.0000000000002" as="targetPoint" />
            <mxPoint as="offset" />
            <Array as="points">
              <mxPoint x="-450" y="860" />
            </Array>
          </mxGeometry>
        </mxCell>
        <mxCell id="7e2kdxyPMD2-_6HDpAWm-58" value="&lt;font size=&quot;3&quot;&gt;«manifest»&lt;/font&gt;" style="edgeLabel;html=1;align=center;verticalAlign=middle;resizable=0;points=[];" vertex="1" connectable="0" parent="7e2kdxyPMD2-_6HDpAWm-4">
          <mxGeometry x="-0.2124" y="1" relative="1" as="geometry">
            <mxPoint x="-12" y="-222" as="offset" />
          </mxGeometry>
        </mxCell>
        <mxCell id="7e2kdxyPMD2-_6HDpAWm-5" value="&lt;font style=&quot;font-size: 18px;&quot;&gt;«component»&lt;br&gt;&lt;b&gt;Forms&lt;/b&gt;&lt;/font&gt;" style="html=1;dropTarget=0;whiteSpace=wrap;" vertex="1" parent="1">
          <mxGeometry x="127" y="1075" width="145" height="50" as="geometry" />
        </mxCell>
        <mxCell id="7e2kdxyPMD2-_6HDpAWm-6" value="" style="shape=module;jettyWidth=8;jettyHeight=4;" vertex="1" parent="7e2kdxyPMD2-_6HDpAWm-5">
          <mxGeometry x="1" width="20" height="20" relative="1" as="geometry">
            <mxPoint x="-27" y="7" as="offset" />
          </mxGeometry>
        </mxCell>
        <mxCell id="7e2kdxyPMD2-_6HDpAWm-9" value="&lt;font style=&quot;font-size: 18px;&quot;&gt;«component»&lt;br&gt;&lt;b&gt;Sharepoint&lt;/b&gt;&lt;/font&gt;" style="html=1;dropTarget=0;whiteSpace=wrap;" vertex="1" parent="1">
          <mxGeometry x="247" y="1240" width="170" height="50" as="geometry" />
        </mxCell>
        <mxCell id="7e2kdxyPMD2-_6HDpAWm-10" value="" style="shape=module;jettyWidth=8;jettyHeight=4;" vertex="1" parent="7e2kdxyPMD2-_6HDpAWm-9">
          <mxGeometry x="1" width="20" height="20" relative="1" as="geometry">
            <mxPoint x="-27" y="7" as="offset" />
          </mxGeometry>
        </mxCell>
        <mxCell id="7e2kdxyPMD2-_6HDpAWm-13" value="&lt;font style=&quot;font-size: 18px;&quot;&gt;«component»&lt;br&gt;&lt;b&gt;Power Automate&lt;/b&gt;&lt;/font&gt;" style="html=1;dropTarget=0;whiteSpace=wrap;" vertex="1" parent="1">
          <mxGeometry x="357" y="1075" width="170" height="50" as="geometry" />
        </mxCell>
        <mxCell id="7e2kdxyPMD2-_6HDpAWm-14" value="" style="shape=module;jettyWidth=8;jettyHeight=4;" vertex="1" parent="7e2kdxyPMD2-_6HDpAWm-13">
          <mxGeometry x="1" width="20" height="20" relative="1" as="geometry">
            <mxPoint x="-27" y="7" as="offset" />
          </mxGeometry>
        </mxCell>
        <mxCell id="7e2kdxyPMD2-_6HDpAWm-15" value="" style="ellipse;whiteSpace=wrap;html=1;aspect=fixed;" vertex="1" parent="1">
          <mxGeometry x="-406" y="150" width="30" height="30" as="geometry" />
        </mxCell>
        <mxCell id="7e2kdxyPMD2-_6HDpAWm-16" value="" style="endArrow=none;html=1;rounded=0;exitX=0.5;exitY=0;exitDx=0;exitDy=0;entryX=0.5;entryY=1;entryDx=0;entryDy=0;" edge="1" parent="1" source="joN3pdNG3yfQY1ER5gcC-47" target="7e2kdxyPMD2-_6HDpAWm-15">
          <mxGeometry width="50" height="50" relative="1" as="geometry">
            <mxPoint x="-386.43" y="249" as="sourcePoint" />
            <mxPoint x="-386.43" y="180" as="targetPoint" />
          </mxGeometry>
        </mxCell>
        <mxCell id="7e2kdxyPMD2-_6HDpAWm-18" value="&lt;font style=&quot;font-size: 18px;&quot;&gt;&lt;b&gt;UI&lt;/b&gt;&lt;/font&gt;" style="text;html=1;align=center;verticalAlign=middle;resizable=0;points=[];autosize=1;strokeColor=none;fillColor=none;" vertex="1" parent="1">
          <mxGeometry x="-400" y="173" width="40" height="40" as="geometry" />
        </mxCell>
        <mxCell id="7e2kdxyPMD2-_6HDpAWm-20" value="" style="ellipse;whiteSpace=wrap;html=1;align=center;aspect=fixed;fillColor=none;strokeColor=none;resizable=0;perimeter=centerPerimeter;rotatable=0;allowArrows=0;points=[];outlineConnect=1;" vertex="1" parent="1">
          <mxGeometry x="-230" y="440" width="10" height="10" as="geometry" />
        </mxCell>
        <mxCell id="7e2kdxyPMD2-_6HDpAWm-22" value="" style="rounded=0;orthogonalLoop=1;jettySize=auto;html=1;endArrow=halfCircle;endFill=0;endSize=6;strokeWidth=1;sketch=0;exitX=1;exitY=0.5;exitDx=0;exitDy=0;" edge="1" parent="1" source="joN3pdNG3yfQY1ER5gcC-47">
          <mxGeometry relative="1" as="geometry">
            <mxPoint x="-200" y="445" as="sourcePoint" />
            <mxPoint x="-220" y="360" as="targetPoint" />
            <Array as="points">
              <mxPoint x="-220" y="470" />
            </Array>
          </mxGeometry>
        </mxCell>
        <mxCell id="7e2kdxyPMD2-_6HDpAWm-23" value="" style="rounded=0;orthogonalLoop=1;jettySize=auto;html=1;endArrow=oval;endFill=0;sketch=0;sourcePerimeterSpacing=0;targetPerimeterSpacing=0;endSize=10;exitX=-0.002;exitY=0.664;exitDx=0;exitDy=0;exitPerimeter=0;" edge="1" parent="1" source="joN3pdNG3yfQY1ER5gcC-11">
          <mxGeometry relative="1" as="geometry">
            <mxPoint x="-156" y="357.5" as="sourcePoint" />
            <mxPoint x="-220" y="360" as="targetPoint" />
            <Array as="points">
              <mxPoint x="-220" y="360" />
            </Array>
          </mxGeometry>
        </mxCell>
        <mxCell id="7e2kdxyPMD2-_6HDpAWm-25" value="&lt;font style=&quot;font-size: 14px;&quot;&gt;&lt;b style=&quot;&quot;&gt;AutomationSystem&lt;/b&gt;&lt;/font&gt;&lt;div&gt;&lt;font size=&quot;3&quot;&gt;&lt;b&gt;API&lt;/b&gt;&lt;/font&gt;&lt;/div&gt;" style="edgeLabel;html=1;align=center;verticalAlign=middle;resizable=0;points=[];" vertex="1" connectable="0" parent="7e2kdxyPMD2-_6HDpAWm-23">
          <mxGeometry x="0.9154" y="-4" relative="1" as="geometry">
            <mxPoint x="-72" y="9" as="offset" />
          </mxGeometry>
        </mxCell>
        <mxCell id="7e2kdxyPMD2-_6HDpAWm-24" value="" style="ellipse;whiteSpace=wrap;html=1;align=center;aspect=fixed;fillColor=none;strokeColor=none;resizable=0;perimeter=centerPerimeter;rotatable=0;allowArrows=0;points=[];outlineConnect=1;" vertex="1" parent="1">
          <mxGeometry x="-225" y="440" width="10" height="10" as="geometry" />
        </mxCell>
        <mxCell id="7e2kdxyPMD2-_6HDpAWm-26" value="&lt;font style=&quot;font-size: 18px;&quot;&gt;«component»&lt;/font&gt;&lt;div&gt;&lt;font size=&quot;3&quot;&gt;«container (C4)»&lt;br&gt;&lt;b&gt;IAM&lt;/b&gt;&lt;/font&gt;&lt;/div&gt;" style="html=1;dropTarget=0;whiteSpace=wrap;" vertex="1" parent="1">
          <mxGeometry x="-355" y="590" width="155" height="65" as="geometry" />
        </mxCell>
        <mxCell id="7e2kdxyPMD2-_6HDpAWm-27" value="" style="shape=module;jettyWidth=8;jettyHeight=4;" vertex="1" parent="7e2kdxyPMD2-_6HDpAWm-26">
          <mxGeometry x="1" width="20" height="20" relative="1" as="geometry">
            <mxPoint x="-27" y="7" as="offset" />
          </mxGeometry>
        </mxCell>
        <mxCell id="7e2kdxyPMD2-_6HDpAWm-31" value="" style="rounded=0;orthogonalLoop=1;jettySize=auto;html=1;endArrow=halfCircle;endFill=0;endSize=6;strokeWidth=1;sketch=0;exitX=0.25;exitY=1;exitDx=0;exitDy=0;" edge="1" parent="1">
          <mxGeometry relative="1" as="geometry">
            <mxPoint x="-339.75" y="510" as="sourcePoint" />
            <mxPoint x="-340" y="547.5" as="targetPoint" />
          </mxGeometry>
        </mxCell>
        <mxCell id="7e2kdxyPMD2-_6HDpAWm-32" value="" style="rounded=0;orthogonalLoop=1;jettySize=auto;html=1;endArrow=oval;endFill=0;sketch=0;sourcePerimeterSpacing=0;targetPerimeterSpacing=0;endSize=10;exitX=0.5;exitY=0;exitDx=0;exitDy=0;" edge="1" parent="1">
          <mxGeometry relative="1" as="geometry">
            <mxPoint x="-340" y="590" as="sourcePoint" />
            <mxPoint x="-340" y="550" as="targetPoint" />
          </mxGeometry>
        </mxCell>
        <mxCell id="7e2kdxyPMD2-_6HDpAWm-33" value="&lt;b&gt;&lt;font style=&quot;font-size: 18px;&quot;&gt;IAM&lt;/font&gt;&lt;/b&gt;&lt;div&gt;&lt;b&gt;&lt;font style=&quot;font-size: 18px;&quot;&gt;API&lt;/font&gt;&lt;/b&gt;&lt;/div&gt;" style="edgeLabel;html=1;align=center;verticalAlign=middle;resizable=0;points=[];" vertex="1" connectable="0" parent="7e2kdxyPMD2-_6HDpAWm-32">
          <mxGeometry x="0.7483" relative="1" as="geometry">
            <mxPoint x="50" y="-7" as="offset" />
          </mxGeometry>
        </mxCell>
        <mxCell id="7e2kdxyPMD2-_6HDpAWm-35" value="&lt;font style=&quot;font-size: 18px;&quot;&gt;«component»&lt;br&gt;«container (C4)»&lt;/font&gt;&lt;div&gt;&lt;b&gt;&lt;font size=&quot;3&quot;&gt;Inquéritos&lt;/font&gt;&lt;/b&gt;&lt;/div&gt;" style="rounded=0;whiteSpace=wrap;html=1;" vertex="1" parent="1">
          <mxGeometry x="-80" y="460" width="140" height="85" as="geometry" />
        </mxCell>
        <mxCell id="7e2kdxyPMD2-_6HDpAWm-36" value="" style="endArrow=none;html=1;rounded=0;entryX=0;entryY=0.25;entryDx=0;entryDy=0;exitX=0.379;exitY=0.002;exitDx=0;exitDy=0;exitPerimeter=0;" edge="1" parent="1" source="joN3pdNG3yfQY1ER5gcC-1" target="joN3pdNG3yfQY1ER5gcC-11">
          <mxGeometry width="50" height="50" relative="1" as="geometry">
            <mxPoint x="-170" y="400" as="sourcePoint" />
            <mxPoint x="-120" y="350" as="targetPoint" />
            <Array as="points">
              <mxPoint x="-225" y="323" />
            </Array>
          </mxGeometry>
        </mxCell>
        <mxCell id="7e2kdxyPMD2-_6HDpAWm-37" value="" style="rounded=0;orthogonalLoop=1;jettySize=auto;html=1;endArrow=halfCircle;endFill=0;endSize=6;strokeWidth=1;sketch=0;fontSize=12;curved=1;" edge="1" parent="1">
          <mxGeometry relative="1" as="geometry">
            <mxPoint x="-225" y="210" as="sourcePoint" />
            <mxPoint x="-225" y="180" as="targetPoint" />
          </mxGeometry>
        </mxCell>
        <mxCell id="7e2kdxyPMD2-_6HDpAWm-39" value="&lt;font style=&quot;font-size: 18px;&quot;&gt;&lt;b&gt;Email Sender&lt;/b&gt;&lt;/font&gt;&lt;div&gt;&lt;font size=&quot;3&quot;&gt;&lt;b&gt;API&lt;/b&gt;&lt;/font&gt;&lt;/div&gt;" style="edgeLabel;html=1;align=center;verticalAlign=middle;resizable=0;points=[];" vertex="1" connectable="0" parent="7e2kdxyPMD2-_6HDpAWm-37">
          <mxGeometry x="0.6081" y="-7" relative="1" as="geometry">
            <mxPoint x="-2" y="-36" as="offset" />
          </mxGeometry>
        </mxCell>
        <mxCell id="7e2kdxyPMD2-_6HDpAWm-38" value="" style="ellipse;whiteSpace=wrap;html=1;align=center;aspect=fixed;fillColor=none;strokeColor=none;resizable=0;perimeter=centerPerimeter;rotatable=0;allowArrows=0;points=[];outlineConnect=1;" vertex="1" parent="1">
          <mxGeometry x="-210" y="188" width="10" height="10" as="geometry" />
        </mxCell>
        <mxCell id="7e2kdxyPMD2-_6HDpAWm-40" value="&lt;font style=&quot;font-size: 18px;&quot;&gt;«manifest»&lt;/font&gt;" style="endArrow=open;endSize=12;dashed=1;html=1;rounded=0;exitX=0.5;exitY=1;exitDx=0;exitDy=0;entryX=0.5;entryY=0;entryDx=0;entryDy=0;" edge="1" parent="1" source="7e2kdxyPMD2-_6HDpAWm-35" target="7e2kdxyPMD2-_6HDpAWm-5">
          <mxGeometry x="0.2568" y="20" width="160" relative="1" as="geometry">
            <mxPoint x="334" y="633" as="sourcePoint" />
            <mxPoint x="700" y="675" as="targetPoint" />
            <mxPoint as="offset" />
            <Array as="points">
              <mxPoint x="-10" y="890" />
              <mxPoint x="200" y="890" />
            </Array>
          </mxGeometry>
        </mxCell>
        <mxCell id="7e2kdxyPMD2-_6HDpAWm-41" value="" style="endArrow=open;endSize=12;dashed=1;html=1;rounded=0;exitX=0.405;exitY=1;exitDx=0;exitDy=0;entryX=0;entryY=0;entryDx=0;entryDy=48;exitPerimeter=0;entryPerimeter=0;" edge="1" parent="1" target="joN3pdNG3yfQY1ER5gcC-77">
          <mxGeometry x="0.8812" y="20" width="160" relative="1" as="geometry">
            <mxPoint x="-277" y="655" as="sourcePoint" />
            <mxPoint x="1244" y="665" as="targetPoint" />
            <mxPoint as="offset" />
            <Array as="points">
              <mxPoint x="-277" y="720" />
              <mxPoint x="-410" y="720" />
              <mxPoint x="-410" y="860" />
            </Array>
          </mxGeometry>
        </mxCell>
        <mxCell id="7e2kdxyPMD2-_6HDpAWm-44" value="&lt;font style=&quot;font-size: 18px;&quot;&gt;«manifest»&lt;/font&gt;" style="endArrow=open;endSize=12;dashed=1;html=1;rounded=0;exitX=0;exitY=0.75;exitDx=0;exitDy=0;entryX=0.001;entryY=0.892;entryDx=0;entryDy=0;entryPerimeter=0;" edge="1" parent="1" source="joN3pdNG3yfQY1ER5gcC-47" target="joN3pdNG3yfQY1ER5gcC-77">
          <mxGeometry x="-0.0561" y="-50" width="160" relative="1" as="geometry">
            <mxPoint x="-413" y="430" as="sourcePoint" />
            <mxPoint x="1013.5" y="208" as="targetPoint" />
            <mxPoint as="offset" />
            <Array as="points">
              <mxPoint x="-620" y="490" />
              <mxPoint x="-620" y="890" />
            </Array>
          </mxGeometry>
        </mxCell>
        <mxCell id="7e2kdxyPMD2-_6HDpAWm-45" value="&lt;font style=&quot;font-size: 18px;&quot;&gt;«manifest»&lt;/font&gt;" style="endArrow=open;endSize=12;dashed=1;html=1;rounded=0;exitX=1;exitY=0.5;exitDx=0;exitDy=0;entryX=1;entryY=0.75;entryDx=0;entryDy=0;" edge="1" parent="1" source="joN3pdNG3yfQY1ER5gcC-11" target="7e2kdxyPMD2-_6HDpAWm-13">
          <mxGeometry x="0.0167" y="30" width="160" relative="1" as="geometry">
            <mxPoint x="-20" y="300" as="sourcePoint" />
            <mxPoint x="869" y="515" as="targetPoint" />
            <mxPoint as="offset" />
            <Array as="points">
              <mxPoint x="600" y="345" />
              <mxPoint x="600" y="1113" />
            </Array>
          </mxGeometry>
        </mxCell>
        <mxCell id="7e2kdxyPMD2-_6HDpAWm-46" value="" style="endArrow=none;html=1;rounded=0;entryX=1;entryY=0.5;entryDx=0;entryDy=0;exitX=0;exitY=0.5;exitDx=0;exitDy=0;" edge="1" parent="1" source="7e2kdxyPMD2-_6HDpAWm-13" target="7e2kdxyPMD2-_6HDpAWm-5">
          <mxGeometry width="50" height="50" relative="1" as="geometry">
            <mxPoint x="247" y="1381" as="sourcePoint" />
            <mxPoint x="247" y="1125" as="targetPoint" />
          </mxGeometry>
        </mxCell>
        <mxCell id="7e2kdxyPMD2-_6HDpAWm-47" value="&lt;font style=&quot;font-size: 18px;&quot;&gt;http/s&lt;/font&gt;" style="edgeLabel;html=1;align=center;verticalAlign=middle;resizable=0;points=[];" vertex="1" connectable="0" parent="7e2kdxyPMD2-_6HDpAWm-46">
          <mxGeometry x="-0.3891" y="-2" relative="1" as="geometry">
            <mxPoint y="-20" as="offset" />
          </mxGeometry>
        </mxCell>
        <mxCell id="7e2kdxyPMD2-_6HDpAWm-48" value="" style="endArrow=none;html=1;rounded=0;entryX=0.25;entryY=1;entryDx=0;entryDy=0;exitX=0.75;exitY=0;exitDx=0;exitDy=0;" edge="1" parent="1" source="7e2kdxyPMD2-_6HDpAWm-9" target="7e2kdxyPMD2-_6HDpAWm-13">
          <mxGeometry width="50" height="50" relative="1" as="geometry">
            <mxPoint x="-245" y="1226" as="sourcePoint" />
            <mxPoint x="-245" y="970" as="targetPoint" />
          </mxGeometry>
        </mxCell>
        <mxCell id="7e2kdxyPMD2-_6HDpAWm-49" value="&lt;font style=&quot;font-size: 18px;&quot;&gt;http/s&lt;/font&gt;" style="edgeLabel;html=1;align=center;verticalAlign=middle;resizable=0;points=[];" vertex="1" connectable="0" parent="7e2kdxyPMD2-_6HDpAWm-48">
          <mxGeometry x="-0.3891" y="-2" relative="1" as="geometry">
            <mxPoint y="-20" as="offset" />
          </mxGeometry>
        </mxCell>
        <mxCell id="7e2kdxyPMD2-_6HDpAWm-50" value="" style="endArrow=none;html=1;rounded=0;entryX=0;entryY=0.5;entryDx=0;entryDy=0;exitX=0;exitY=0;exitDx=230;exitDy=82;exitPerimeter=0;" edge="1" parent="1" source="joN3pdNG3yfQY1ER5gcC-77" target="7e2kdxyPMD2-_6HDpAWm-5">
          <mxGeometry width="50" height="50" relative="1" as="geometry">
            <mxPoint x="-101" y="1243.5" as="sourcePoint" />
            <mxPoint x="-101" y="987.5" as="targetPoint" />
          </mxGeometry>
        </mxCell>
        <mxCell id="7e2kdxyPMD2-_6HDpAWm-51" value="&lt;font style=&quot;font-size: 18px;&quot;&gt;http/s&lt;/font&gt;" style="edgeLabel;html=1;align=center;verticalAlign=middle;resizable=0;points=[];" vertex="1" connectable="0" parent="7e2kdxyPMD2-_6HDpAWm-50">
          <mxGeometry x="-0.3891" y="-2" relative="1" as="geometry">
            <mxPoint x="34" as="offset" />
          </mxGeometry>
        </mxCell>
        <mxCell id="7e2kdxyPMD2-_6HDpAWm-52" value="" style="endArrow=none;html=1;rounded=0;entryX=0.25;entryY=1;entryDx=0;entryDy=0;exitX=0.5;exitY=1;exitDx=0;exitDy=0;" edge="1" parent="1" source="joN3pdNG3yfQY1ER5gcC-87" target="7e2kdxyPMD2-_6HDpAWm-9">
          <mxGeometry width="50" height="50" relative="1" as="geometry">
            <mxPoint x="-91" y="1253.5" as="sourcePoint" />
            <mxPoint x="-91" y="997.5" as="targetPoint" />
            <Array as="points">
              <mxPoint x="-448" y="1490" />
              <mxPoint x="287" y="1490" />
            </Array>
          </mxGeometry>
        </mxCell>
        <mxCell id="7e2kdxyPMD2-_6HDpAWm-53" value="&lt;font style=&quot;font-size: 18px;&quot;&gt;http/s&lt;/font&gt;" style="edgeLabel;html=1;align=center;verticalAlign=middle;resizable=0;points=[];" vertex="1" connectable="0" parent="7e2kdxyPMD2-_6HDpAWm-52">
          <mxGeometry x="-0.3891" y="-2" relative="1" as="geometry">
            <mxPoint x="432" y="-22" as="offset" />
          </mxGeometry>
        </mxCell>
        <mxCell id="7e2kdxyPMD2-_6HDpAWm-54" value="" style="endArrow=none;html=1;rounded=0;entryX=0.096;entryY=0.005;entryDx=0;entryDy=0;exitX=0;exitY=0;exitDx=230;exitDy=48;exitPerimeter=0;entryPerimeter=0;" edge="1" parent="1" source="joN3pdNG3yfQY1ER5gcC-77" target="7e2kdxyPMD2-_6HDpAWm-13">
          <mxGeometry width="50" height="50" relative="1" as="geometry">
            <mxPoint x="-69" y="1264.5" as="sourcePoint" />
            <mxPoint x="261" y="1092.5" as="targetPoint" />
            <Array as="points">
              <mxPoint x="57" y="1050" />
              <mxPoint x="373" y="1050" />
            </Array>
          </mxGeometry>
        </mxCell>
        <mxCell id="7e2kdxyPMD2-_6HDpAWm-55" value="&lt;font style=&quot;font-size: 18px;&quot;&gt;http/s&lt;/font&gt;" style="edgeLabel;html=1;align=center;verticalAlign=middle;resizable=0;points=[];" vertex="1" connectable="0" parent="7e2kdxyPMD2-_6HDpAWm-54">
          <mxGeometry x="-0.3891" y="-2" relative="1" as="geometry">
            <mxPoint y="-20" as="offset" />
          </mxGeometry>
        </mxCell>
        <mxCell id="7e2kdxyPMD2-_6HDpAWm-60" value="&lt;font size=&quot;3&quot;&gt;«manifest»&lt;/font&gt;" style="edgeLabel;html=1;align=center;verticalAlign=middle;resizable=0;points=[];" vertex="1" connectable="0" parent="1">
          <mxGeometry x="-279.9961609356169" y="690.0023853636242" as="geometry" />
        </mxCell>
      </root>
    </mxGraphModel>
  </diagram>
</mxfile>
